<?xml version="1.0" encoding="UTF-8"?>
<!--Generator: Apple Native CoreSVG 175.5-->
<!DOCTYPE svg
PUBLIC "-//W3C//DTD SVG 1.1//EN"
       "http://www.w3.org/Graphics/SVG/1.1/DTD/svg11.dtd">
<svg version="1.1" xmlns="http://www.w3.org/2000/svg" xmlns:xlink="http://www.w3.org/1999/xlink" width="20.875" height="17.0225">
 <g>
  <rect height="17.0225" opacity="0" width="20.875" x="0" y="0"/>
  <path d="M7.93391 4.07866C8.3842 4.07866 8.75361 3.6989 8.75361 3.24648C8.75361 2.80653 8.3842 2.42678 7.93391 2.42678C7.48149 2.42678 7.10173 2.80653 7.10173 3.24648C7.10173 3.6989 7.48149 4.07866 7.93391 4.07866ZM10.4136 4.07866C10.8764 4.07866 11.2458 3.6989 11.2458 3.24648C11.2458 2.80653 10.8764 2.42678 10.4136 2.42678C9.97367 2.42678 9.59392 2.80653 9.59392 3.24648C9.59392 3.6989 9.97367 4.07866 10.4136 4.07866ZM12.9183 4.07866C13.381 4.07866 13.7505 3.6989 13.7505 3.24648C13.7505 2.80653 13.381 2.42678 12.9183 2.42678C12.4783 2.42678 12.0986 2.80653 12.0986 3.24648C12.0986 3.6989 12.4783 4.07866 12.9183 4.07866ZM15.2111 8.42752C15.6739 8.42752 16.0433 8.04776 16.0433 7.59534C16.0433 7.1554 15.6739 6.77564 15.2111 6.77564C14.7712 6.77564 14.3914 7.1554 14.3914 7.59534C14.3914 8.04776 14.7712 8.42752 15.2111 8.42752ZM13.3918 10.4337C13.8546 10.4337 14.224 10.054 14.224 9.60157C14.224 9.1616 13.8546 8.78184 13.3918 8.78184C12.9518 8.78184 12.5721 9.1616 12.5721 9.60157C12.5721 10.054 12.9518 10.4337 13.3918 10.4337ZM7.46039 10.4337C7.9107 10.4337 8.28009 10.054 8.28009 9.60157C8.28009 9.1616 7.9107 8.78184 7.46039 8.78184C7.00797 8.78184 6.62821 9.1616 6.62821 9.60157C6.62821 10.054 7.00797 10.4337 7.46039 10.4337ZM5.64109 8.42752C6.09141 8.42752 6.4608 8.04776 6.4608 7.59534C6.4608 7.1554 6.09141 6.77564 5.64109 6.77564C5.18867 6.77564 4.80892 7.1554 4.80892 7.59534C4.80892 8.04776 5.18867 8.42752 5.64109 8.42752Z" fill="#000000" fill-opacity="0.85"/>
  <path d="M3.13855 6.30606C4.88419 6.30606 6.2957 4.89455 6.2957 3.15714C6.2957 1.42186 4.88419 0.0206998 3.13855 0.0206998C1.4115 0.0206998 0 1.42186 0 3.15714C0 4.89455 1.4115 6.30606 3.13855 6.30606ZM3.13855 4.77675C2.24861 4.77675 1.5293 4.06779 1.5293 3.15714C1.5293 2.2486 2.25072 1.55 3.13855 1.55C4.05745 1.55 4.75605 2.2486 4.75605 3.15714C4.75605 4.06779 4.05956 4.77675 3.13855 4.77675ZM17.7178 6.30606C19.4635 6.30606 20.875 4.89455 20.875 3.15714C20.875 1.42186 19.4635 0.0206998 17.7178 0.0206998C15.9908 0.0206998 14.5793 1.42186 14.5793 3.15714C14.5793 4.89455 15.9908 6.30606 17.7178 6.30606ZM17.7178 4.77675C16.8279 4.77675 16.1086 4.06779 16.1086 3.15714C16.1086 2.2486 16.83 1.55 17.7178 1.55C18.6367 1.55 19.3353 2.2486 19.3353 3.15714C19.3353 4.06779 18.6389 4.77675 17.7178 4.77675ZM10.4282 17.0225C12.1738 17.0225 13.5854 15.611 13.5854 13.8735C13.5854 12.1383 12.1738 10.7371 10.4282 10.7371C8.70116 10.7371 7.28966 12.1383 7.28966 13.8735C7.28966 15.611 8.70116 17.0225 10.4282 17.0225ZM10.4282 15.4932C9.53825 15.4932 8.81894 14.7842 8.81894 13.8735C8.81894 12.965 9.54036 12.2664 10.4282 12.2664C11.3471 12.2664 12.0457 12.965 12.0457 13.8735C12.0457 14.7842 11.3492 15.4932 10.4282 15.4932Z" fill="#000000" fill-opacity="0.85"/>
 </g>
</svg>
